<?xml version="1.0" encoding="UTF-8" standalone="no"?>
<svg
   xmlns:dc="http://purl.org/dc/elements/1.1/"
   xmlns:cc="http://creativecommons.org/ns#"
   xmlns:rdf="http://www.w3.org/1999/02/22-rdf-syntax-ns#"
   xmlns:svg="http://www.w3.org/2000/svg"
   xmlns="http://www.w3.org/2000/svg"
   xmlns:sodipodi="http://sodipodi.sourceforge.net/DTD/sodipodi-0.dtd"
   xmlns:inkscape="http://www.inkscape.org/namespaces/inkscape"
   height="24"
   width="24"
   version="1.1"
   id="svg30"
   sodipodi:docname="icon_polygon_nodes.svg"
   inkscape:version="0.92.2 5c3e80d, 2017-08-06">
  <metadata
     id="metadata36">
    <rdf:RDF>
      <cc:Work
         rdf:about="">
        <dc:format>image/svg+xml</dc:format>
        <dc:type
           rdf:resource="http://purl.org/dc/dcmitype/StillImage" />
        <dc:title></dc:title>
      </cc:Work>
    </rdf:RDF>
  </metadata>
  <defs
     id="defs34" />
  <sodipodi:namedview
     pagecolor="#ffffff"
     bordercolor="#666666"
     borderopacity="1"
     objecttolerance="10"
     gridtolerance="10"
     guidetolerance="10"
     inkscape:pageopacity="0"
     inkscape:pageshadow="2"
     inkscape:window-width="738"
     inkscape:window-height="480"
     id="namedview32"
     showgrid="false"
     inkscape:zoom="9.8333333"
     inkscape:cx="12"
     inkscape:cy="12"
     inkscape:window-x="0"
     inkscape:window-y="0"
     inkscape:window-maximized="0"
     inkscape:current-layer="svg30" />
  <g
     transform="translate(0 -8)"
     id="g28">
    <g
       transform="matrix(.69230769 0 0 .69230769 1.8461539 9.8461539)"
       id="g10">
      <rect
         fill="#5a8c5a"
         height="13"
         rx="2.6149371"
         ry="2.6149368"
         width="13"
         x="19"
         y="19"
         id="rect2" />
      <path
         d="m21.6 25.499999l7.8 0"
         style="fill:#fff;fill-rule:evenodd;stroke:#fff;stroke-width:2.5999999;stroke-linecap:round;stroke-linejoin:round;overflow:visible"
         id="path4" />
      <path
         d="m25.5 29.399999l0-7.799999"
         style="fill:#fff;fill-rule:evenodd;stroke:#fff;stroke-width:2.5999999;stroke-linecap:round;stroke-linejoin:round;overflow:visible"
         id="path6" />
      <path
         d="m20.3 25.499999h10.4c0 0 0 0 0-2.6 0-2.599999-.65-2.599999-5.2-2.599999-4.55 0-5.2 0-5.2 2.599999 0 2.6 0 2.6 0 2.6z"
         fill="#fcffff"
         fill-rule="evenodd"
         opacity=".3"
         id="path8" />
    </g>
    <circle
       cx="12"
       cy="20"
       r="8.5"
       style="fill:#2a7fff;stroke:#333;stroke-width:1.00173461;stroke-linejoin:round;stroke-miterlimit:.40000001;stroke-opacity:.97254902"
       transform="matrix(.29411765 0 0 .29411762 .4705882 5.6176474)"
       id="circle12" />
    <circle
       cx="12"
       cy="20"
       r="8.5"
       style="fill:#2a7fff;stroke:#333;stroke-width:1.00173461;stroke-linejoin:round;stroke-miterlimit:.40000001;stroke-opacity:.97254902"
       transform="matrix(.29411765 0 0 .29411762 15.970588 5.1176476)"
       id="circle14" />
    <circle
       cx="12"
       cy="20"
       r="8.5"
       style="fill:#2a7fff;stroke:#333;stroke-width:1.00173461;stroke-linejoin:round;stroke-miterlimit:.40000001;stroke-opacity:.97254902"
       transform="matrix(.29411765 0 0 .29411762 -.02941178 18.117648)"
       id="circle16" />
    <circle
       cx="12"
       cy="20"
       r="8.5"
       style="fill:#2a7fff;stroke:#333;stroke-width:1.00173461;stroke-linejoin:round;stroke-miterlimit:.40000001;stroke-opacity:.97254902"
       transform="matrix(.29411765 0 0 .29411762 7.4705882 22.617648)"
       id="circle18" />
    <path
       d="m3.5999216 13.501961l.3001568-7.5039218"
       fill="none"
       stroke="#000"
       transform="translate(0 8)"
       id="path20" />
    <path
       d="m6.4987252 3.4193958l10.5025498-.3387918"
       fill="none"
       stroke="#000"
       transform="translate(0 8)"
       id="path22" />
    <path
       d="m18.407492 5.2492817l-6.314984 13.0014373"
       fill="none"
       stroke="#000"
       transform="translate(0 8)"
       id="path24" />
    <path
       d="m8.8559448 19.213567l-3.2118895-1.927134"
       fill="none"
       stroke="#000"
       transform="translate(0 8)"
       id="path26" />
  </g>
</svg>
